<svg xmlns="http://www.w3.org/2000/svg" viewBox="0 0 721 145.3"><defs><style>.cls-1{fill:#323233;}.cls-1,.cls-3{stroke:#323233;}.cls-2,.cls-3{fill:none;stroke-miterlimit:10;stroke-width:12px;}.cls-2{stroke:#6bdd8f;}</style></defs><g id="Layer_11" data-name="Layer 11"><path class="cls-1" d="M742.32,370H701.89a1.22,1.22,0,0,0-1.11,1.3V502.71a1.21,1.21,0,0,1-1.12,1.29h-8.28a1.21,1.21,0,0,1-1.12-1.29V371.3a1.22,1.22,0,0,0-1.11-1.3H649.61a2.08,2.08,0,0,1-1.92-2.22v-5.86a2.08,2.08,0,0,1,1.92-2.22h92.71a1.21,1.21,0,0,1,1.11,1.29v7.72A1.21,1.21,0,0,1,742.32,370Z" transform="translate(-647.19 -359.2)"/><path class="cls-1" d="M808.19,501.18a54.25,54.25,0,0,1-1.61-10.51,1.16,1.16,0,0,0-2-.75,38.09,38.09,0,0,1-12.59,9.8A41.8,41.8,0,0,1,773.39,504q-14,0-22.7-8.37T742,474.45q0-15.21,11.82-24.06t33-8.86h18.34a1.21,1.21,0,0,0,1.17-1.26V429.69q0-11.16-6.43-17.57t-18.74-6.4q-11.25,0-18.62,6.16-6.87,5.75-7.34,13.65A1.21,1.21,0,0,1,754,426.7l-8.46-.08a1.22,1.22,0,0,1-1.16-1.33q.54-11.58,10.76-20.19,10.79-9.11,26.53-9.1,16.27,0,25.67,8.71T817,429V478.3q0,14.94,2.9,22.45a1,1,0,0,1,.06.36h0a.94.94,0,0,1-.9,1h-9.75A1.19,1.19,0,0,1,808.19,501.18Zm-33.54-7.38a34.29,34.29,0,0,0,19.29-5.59,32.26,32.26,0,0,0,12.26-14.66,1.39,1.39,0,0,0,.1-.53V451.64a1.21,1.21,0,0,0-1.17-1.25H787.06q-16.09.18-25.18,6.3t-9.08,16.8A19.19,19.19,0,0,0,758.87,488Q764.95,493.8,774.65,493.8Z" transform="translate(-647.19 -359.2)"/><path class="cls-1" d="M898.8,475.6a16.8,16.8,0,0,0-6.43-13.76q-6.43-5.2-19.38-8.13T852.9,447a27.32,27.32,0,0,1-10.62-9.29,24.47,24.47,0,0,1-3.46-13.28A25.4,25.4,0,0,1,848.44,404q9.63-8,24.64-8,16.27,0,26.13,8.61A28.24,28.24,0,0,1,909,425.77a1.24,1.24,0,0,1-1.18,1.32H899.4a1.2,1.2,0,0,1-1.17-1.17,19.07,19.07,0,0,0-7.12-14q-7.14-6.06-18-6.06-10.61,0-17,5.05A16,16,0,0,0,849.61,424q0,7.8,5.35,12.08t19.52,7.85q14.16,3.56,21.22,7.6a28.2,28.2,0,0,1,10.47,9.72A26.24,26.24,0,0,1,909.59,475q0,13.19-9.93,21.08T873.71,504q-17,0-27.56-8.81-10-8.37-10.54-20.95a1.23,1.23,0,0,1,1.18-1.33h8.5a1.22,1.22,0,0,1,1.18,1.11,20.18,20.18,0,0,0,7.86,14.63q7.33,5.63,19.38,5.63,11.25,0,18.17-5.3T898.8,475.6Z" transform="translate(-647.19 -359.2)"/><path class="cls-1" d="M951.09,451,940,462.68a1.37,1.37,0,0,0-.36.93v39.1A1.23,1.23,0,0,1,938.5,504H930a1.24,1.24,0,0,1-1.18-1.29V361.23a1.24,1.24,0,0,1,1.18-1.3h8.46a1.24,1.24,0,0,1,1.17,1.3v84.65a1.16,1.16,0,0,0,2,.88l8.14-9.66,37-40a1.11,1.11,0,0,1,.82-.38H997.9a1.32,1.32,0,0,1,.83,2.22l-38.58,42.16a1.41,1.41,0,0,0-.09,1.73l42.77,59a1.3,1.3,0,0,1-.92,2.1H992a1.15,1.15,0,0,1-.92-.48l-38.3-52.43A1.1,1.1,0,0,0,951.09,451Z" transform="translate(-647.19 -359.2)"/><path class="cls-1" d="M1087.89,436.51h-58.81a1.24,1.24,0,0,0-1.18,1.29v64.91a1.24,1.24,0,0,1-1.18,1.29H1018a1.24,1.24,0,0,1-1.18-1.29V361a1.24,1.24,0,0,1,1.18-1.29h78.9a1.23,1.23,0,0,1,1.17,1.29v7.72a1.23,1.23,0,0,1-1.17,1.29h-67.82a1.24,1.24,0,0,0-1.18,1.3v53.6a1.24,1.24,0,0,0,1.18,1.3h58.81a1.23,1.23,0,0,1,1.17,1.29v7.72A1.24,1.24,0,0,1,1087.89,436.51Z" transform="translate(-647.19 -359.2)"/><path class="cls-1" d="M1125.53,504h-8.46a1.23,1.23,0,0,1-1.17-1.29V361.23a1.24,1.24,0,0,1,1.17-1.3h8.46a1.24,1.24,0,0,1,1.18,1.3V502.71A1.24,1.24,0,0,1,1125.53,504Z" transform="translate(-647.19 -359.2)"/><path class="cls-1" d="M1277.54,479.2l.57,3.39a1.09,1.09,0,0,0,2.18.06l.83-4a.19.19,0,0,1,0-.08l22-81.7a1.14,1.14,0,0,1,1.06-.91h7.08a1.16,1.16,0,0,1,1.07.91l21.71,81s0,0,0,.08l1.24,5.89a1.09,1.09,0,0,0,2.17,0l.94-5L1357.16,397a1.16,1.16,0,0,1,1.07-1h8.6a1,1,0,0,1,.83,1.29l-26.38,105.77a1.15,1.15,0,0,1-1.07.94h-7.07a1.15,1.15,0,0,1-1.06-.9l-23.5-84.68,0-.12h0a1.09,1.09,0,0,0-2.18,0l0,.1a.5.5,0,0,1,0,.12l-23.08,84.57a1.14,1.14,0,0,1-1.06.91h-7.06a1.16,1.16,0,0,1-1.08-.94l-26.19-105.39a1.28,1.28,0,0,1,1.07-1.67h8.18a1.17,1.17,0,0,1,1.08,1l19.33,82.14A.3.3,0,0,1,1277.54,479.2Z" transform="translate(-647.19 -359.2)"/><polyline class="cls-2" points="519.52 79.95 546.05 109.89 597.88 53.63"/><path class="cls-3" d="M1230.13,413.62c-8.6-11.46-21.61-18.76-36.17-18.76-25.89,0-46.87,23.09-46.87,51.57S1168.07,498,1194,498s46.87-23.09,46.87-51.57c0-4.13.18-10.46-1.81-13.75" transform="translate(-647.19 -359.2)"/></g></svg>