<svg xmlns="http://www.w3.org/2000/svg" viewBox="0 0 721 145.3"><defs><style>.cls-1{fill:#e2e2e2;}.cls-1,.cls-3{stroke:#e2e2e2;}.cls-2,.cls-3{fill:none;stroke-miterlimit:10;stroke-width:12px;}.cls-2{stroke:#6bdd8f;}</style></defs><g id="Layer_13" data-name="Layer 13"><path class="cls-1" d="M742.72,370H702.3a1.22,1.22,0,0,0-1.12,1.3V502.71a1.21,1.21,0,0,1-1.12,1.29h-8.28a1.21,1.21,0,0,1-1.11-1.29V371.3a1.22,1.22,0,0,0-1.12-1.3H650a2.08,2.08,0,0,1-1.91-2.22v-5.86A2.08,2.08,0,0,1,650,359.7h92.71a1.21,1.21,0,0,1,1.12,1.29v7.72A1.21,1.21,0,0,1,742.72,370Z" transform="translate(-647.6 -359.2)"/><path class="cls-1" d="M808.59,501.18A55,55,0,0,1,807,490.67a1.15,1.15,0,0,0-2-.75,38.06,38.06,0,0,1-12.58,9.8A41.87,41.87,0,0,1,773.8,504q-14,0-22.71-8.37t-8.68-21.18q0-15.21,11.83-24.06t33-8.86h18.33a1.22,1.22,0,0,0,1.18-1.26V429.69q0-11.16-6.43-17.57t-18.75-6.4q-11.24,0-18.61,6.16-6.87,5.75-7.34,13.65a1.21,1.21,0,0,1-1.18,1.17l-8.45-.08a1.24,1.24,0,0,1-1.17-1.33q.56-11.58,10.76-20.19,10.8-9.11,26.53-9.1,16.27,0,25.67,8.71T817.41,429V478.3q0,14.94,2.9,22.45a1,1,0,0,1,.07.36h0a1,1,0,0,1-.91,1h-9.75A1.2,1.2,0,0,1,808.59,501.18Zm-33.53-7.38a34.25,34.25,0,0,0,19.28-5.59,32.2,32.2,0,0,0,12.26-14.66,1.4,1.4,0,0,0,.11-.53V451.64a1.22,1.22,0,0,0-1.18-1.25H787.47q-16.11.18-25.18,6.3t-9.09,16.8A19.23,19.23,0,0,0,759.27,488Q765.35,493.8,775.06,493.8Z" transform="translate(-647.6 -359.2)"/><path class="cls-1" d="M899.2,475.6a16.82,16.82,0,0,0-6.42-13.76q-6.43-5.2-19.38-8.13T853.3,447a27.28,27.28,0,0,1-10.61-9.29,24.39,24.39,0,0,1-3.46-13.28A25.37,25.37,0,0,1,848.85,404q9.61-8,24.64-8,16.28,0,26.12,8.61a28.21,28.21,0,0,1,9.82,21.16,1.22,1.22,0,0,1-1.17,1.32H899.8a1.2,1.2,0,0,1-1.16-1.17,19.1,19.1,0,0,0-7.12-14q-7.15-6.06-18-6.06-10.62,0-17,5.05A15.93,15.93,0,0,0,850,424q0,7.8,5.35,12.08t19.51,7.85q14.16,3.56,21.22,7.6a28.24,28.24,0,0,1,10.48,9.72A26.24,26.24,0,0,1,910,475q0,13.19-9.94,21.08T874.12,504q-17,0-27.57-8.81A27.69,27.69,0,0,1,836,474.24a1.23,1.23,0,0,1,1.17-1.33h8.5a1.2,1.2,0,0,1,1.18,1.11,20.16,20.16,0,0,0,7.87,14.63q7.32,5.63,19.38,5.63,11.24,0,18.16-5.3T899.2,475.6Z" transform="translate(-647.6 -359.2)"/><path class="cls-1" d="M951.49,451l-11,11.72a1.37,1.37,0,0,0-.36.93v39.1A1.24,1.24,0,0,1,938.9,504h-8.46a1.24,1.24,0,0,1-1.17-1.29V361.23a1.24,1.24,0,0,1,1.17-1.3h8.46a1.24,1.24,0,0,1,1.18,1.3v84.65a1.16,1.16,0,0,0,2,.88l8.14-9.66,37-40a1.13,1.13,0,0,1,.83-.38H998.3a1.32,1.32,0,0,1,.83,2.22l-38.57,42.16a1.38,1.38,0,0,0-.09,1.73l42.77,59a1.31,1.31,0,0,1-.92,2.1h-9.88a1.14,1.14,0,0,1-.91-.48l-38.3-52.43A1.12,1.12,0,0,0,951.49,451Z" transform="translate(-647.6 -359.2)"/><path class="cls-1" d="M1088.29,436.51h-58.81a1.23,1.23,0,0,0-1.17,1.29v64.91a1.24,1.24,0,0,1-1.18,1.29h-8.73a1.23,1.23,0,0,1-1.17-1.29V361a1.23,1.23,0,0,1,1.17-1.29h78.9a1.24,1.24,0,0,1,1.18,1.29v7.72a1.24,1.24,0,0,1-1.18,1.29h-67.82a1.24,1.24,0,0,0-1.17,1.3v53.6a1.24,1.24,0,0,0,1.17,1.3h58.81a1.24,1.24,0,0,1,1.18,1.29v7.72A1.24,1.24,0,0,1,1088.29,436.51Z" transform="translate(-647.6 -359.2)"/><path class="cls-1" d="M1125.94,504h-8.46a1.24,1.24,0,0,1-1.18-1.29V361.23a1.24,1.24,0,0,1,1.18-1.3h8.46a1.24,1.24,0,0,1,1.17,1.3V502.71A1.23,1.23,0,0,1,1125.94,504Z" transform="translate(-647.6 -359.2)"/><path class="cls-1" d="M1278,479.2l.56,3.39a1.09,1.09,0,0,0,2.18.06l.83-4s0-.06,0-.08l22-81.7a1.16,1.16,0,0,1,1.07-.91h7.07a1.16,1.16,0,0,1,1.07.91l21.71,81a.24.24,0,0,1,0,.08l1.24,5.89a1.09,1.09,0,0,0,2.18,0l.93-5L1357.56,397a1.16,1.16,0,0,1,1.08-1h8.59a1,1,0,0,1,.83,1.29l-26.37,105.77a1.16,1.16,0,0,1-1.07.94h-7.07a1.15,1.15,0,0,1-1.07-.9L1309,418.42l0-.12h0a1.09,1.09,0,0,0-2.18,0l0,.1,0,.12-23.07,84.57a1.16,1.16,0,0,1-1.07.91h-7.06a1.15,1.15,0,0,1-1.07-.94l-26.2-105.39a1.28,1.28,0,0,1,1.08-1.67h8.17a1.15,1.15,0,0,1,1.08,1l19.34,82.14S1277.94,479.16,1278,479.2Z" transform="translate(-647.6 -359.2)"/><polyline class="cls-2" points="519.52 79.95 546.05 109.89 597.88 53.63"/><path class="cls-3" d="M1230.53,413.62c-8.59-11.46-21.6-18.76-36.17-18.76-25.88,0-46.87,23.09-46.87,51.57s21,51.57,46.87,51.57,46.88-23.09,46.88-51.57c0-4.13.18-10.46-1.82-13.75" transform="translate(-647.6 -359.2)"/></g></svg>