<?xml version="1.0" encoding="utf-8" ?>
<svg xmlns="http://www.w3.org/2000/svg" xmlns:xlink="http://www.w3.org/1999/xlink" width="1024" height="1024">
	<path fill="#FEFEFE" d="M0 0L1024 0L1024 1024L0 1024L0 0Z"/>
	<path fill="#073348" d="M441.505 619.63C446.236 619.143 450.771 619.299 455.459 620.146C459.247 620.831 466.643 622.19 468.685 625.774C469.403 627.035 469.39 628.006 469.097 629.349C465.591 631.739 459.909 628.168 456.345 626.956C454.647 626.379 452.806 626.131 451.041 625.839C441.505 624.821 428.147 631.499 423.019 630.274C422.428 628.923 422.431 628.817 422.718 627.368C426.344 622.508 435.852 620.796 441.505 619.63Z"/>
	<path fill="#073348" d="M808.595 857.574Q810.036 857.567 811.459 857.797Q812.882 858.028 814.248 858.489C817.138 859.491 819.663 861.456 820.912 864.297Q821.105 864.731 821.252 865.182Q821.399 865.633 821.499 866.097Q821.599 866.561 821.651 867.033Q821.703 867.505 821.706 867.979Q821.709 868.454 821.663 868.927Q821.617 869.399 821.523 869.864Q821.429 870.33 821.288 870.783Q821.147 871.236 820.96 871.672C819.37 875.442 816.42 876.948 812.853 878.393C810.856 878.517 809.006 878.461 807.101 877.766Q806.578 877.577 806.077 877.334Q805.577 877.091 805.104 876.797Q804.632 876.502 804.193 876.16Q803.755 875.818 803.354 875.431Q802.954 875.045 802.597 874.618Q802.24 874.192 801.929 873.73Q801.619 873.268 801.358 872.776Q801.098 872.284 800.891 871.768Q800.704 871.291 800.565 870.798Q800.426 870.304 800.337 869.8Q800.247 869.295 800.208 868.784Q800.168 868.273 800.179 867.761Q800.191 867.249 800.252 866.74Q800.314 866.231 800.425 865.731Q800.536 865.231 800.697 864.744Q800.857 864.258 801.064 863.789C802.594 860.361 805.254 858.917 808.595 857.574Z"/>
	<path fill="#073348" d="M848.368 857.557C850.501 857.664 852.655 858.014 854.542 859.072Q854.983 859.316 855.398 859.603Q855.813 859.89 856.197 860.217Q856.581 860.543 856.931 860.906Q857.281 861.27 857.593 861.666Q857.905 862.062 858.177 862.487Q858.448 862.912 858.676 863.362Q858.904 863.812 859.086 864.282Q859.268 864.752 859.402 865.238Q859.547 865.767 859.636 866.308Q859.725 866.849 859.757 867.397Q859.79 867.944 859.765 868.492Q859.74 869.04 859.659 869.582Q859.577 870.125 859.44 870.656Q859.303 871.187 859.111 871.701Q858.92 872.214 858.676 872.706Q858.432 873.197 858.138 873.66C856.135 876.845 853.52 877.735 850.007 878.547C847.805 878.443 845.701 878.113 843.736 877.046Q843.285 876.806 842.861 876.521Q842.437 876.235 842.043 875.909Q841.65 875.582 841.292 875.218Q840.934 874.853 840.615 874.454Q840.295 874.055 840.018 873.625Q839.741 873.196 839.509 872.74Q839.276 872.285 839.092 871.808Q838.907 871.332 838.771 870.839Q838.635 870.342 838.55 869.834Q838.465 869.326 838.432 868.811Q838.4 868.297 838.421 867.782Q838.441 867.268 838.514 866.758Q838.587 866.248 838.712 865.748Q838.836 865.248 839.012 864.763Q839.187 864.279 839.411 863.815Q839.635 863.351 839.905 862.912C841.879 859.678 844.832 858.441 848.368 857.557Z"/>
	<path fill="#073348" d="M680.784 857.582C682.863 857.512 684.894 857.687 686.849 858.457Q687.366 858.658 687.858 858.913Q688.351 859.167 688.814 859.472Q689.277 859.777 689.705 860.13Q690.133 860.482 690.521 860.878Q690.91 861.273 691.254 861.708Q691.599 862.142 691.895 862.611Q692.192 863.079 692.437 863.576Q692.682 864.074 692.874 864.594Q693.043 865.054 693.165 865.528Q693.288 866.002 693.362 866.486Q693.437 866.97 693.463 867.459Q693.489 867.948 693.466 868.438Q693.443 868.927 693.371 869.411Q693.299 869.896 693.18 870.371Q693.06 870.846 692.894 871.307Q692.727 871.767 692.516 872.209C690.771 875.883 687.844 877.18 684.215 878.452C681.602 878.525 679.255 878.425 676.88 877.212Q676.421 876.982 675.988 876.708Q675.554 876.433 675.15 876.117Q674.746 875.8 674.376 875.445Q674.006 875.09 673.673 874.7Q673.34 874.309 673.048 873.887Q672.755 873.465 672.507 873.016Q672.258 872.568 672.056 872.096Q671.853 871.624 671.699 871.135Q671.545 870.652 671.44 870.156Q671.336 869.661 671.281 869.157Q671.226 868.653 671.222 868.147Q671.219 867.64 671.265 867.136Q671.312 866.631 671.409 866.134Q671.506 865.637 671.652 865.152Q671.798 864.666 671.992 864.198Q672.186 863.73 672.426 863.284C674.271 859.872 677.228 858.617 680.784 857.582Z"/>
	<path fill="#073348" d="M231.222 792.652C236.979 792.662 271.898 791.739 274.557 793.59C275.463 795.52 275.247 798.101 274.577 800.088C272.664 801.796 243.034 800.864 238.274 800.838C237.919 810.551 238.076 820.337 237.992 830.06C243.934 830.054 265.589 829.073 269.448 830.415C270.336 830.723 270.66 830.9 270.984 831.773C271.666 833.606 271.349 835.072 270.669 836.832C270.324 837.133 270.049 837.543 269.634 837.736C267.287 838.827 243.104 838.108 238.357 838.197L238.215 848.379L237.998 868.616C250.525 869.1 263.067 868.794 275.599 869.074C275.662 871.362 276.08 874.614 274.809 876.564C269.629 878.517 248.497 877.471 241.311 877.533C238.932 877.553 230.914 878.144 229.335 876.185C228.588 875.259 228.41 874.207 228.335 873.056C228.018 868.171 228.326 863.087 228.324 858.181L228.294 826.417C228.281 817.387 227.244 802.848 228.333 794.456C229.325 793.294 229.826 793.186 231.222 792.652Z"/>
	<path fill="#073348" d="M410.84 791.161Q412.412 790.98 413.993 790.895C424.904 790.31 436.966 792.256 445.362 799.818L445.442 809.891C434.75 802.689 424.209 797.859 410.999 800.021Q410.145 800.16 409.299 800.341Q408.452 800.522 407.616 800.746Q406.78 800.969 405.956 801.235Q405.133 801.5 404.323 801.806Q403.514 802.112 402.721 802.458Q401.927 802.804 401.153 803.19Q400.378 803.576 399.624 804Q398.869 804.424 398.137 804.885Q397.405 805.346 396.696 805.843Q395.988 806.341 395.306 806.873Q394.623 807.405 393.968 807.971Q393.314 808.537 392.688 809.135Q392.062 809.733 391.467 810.361Q390.872 810.99 390.31 811.647Q389.747 812.305 389.218 812.99Q388.689 813.674 388.195 814.385C382.302 822.715 380.912 832.661 382.715 842.581C384.309 851.352 389.133 859.257 396.523 864.323C405.572 870.525 415.832 871.275 426.345 869.361C433.349 868.1 439.085 864.356 445.267 861.104C445.483 864.675 445.24 868.294 445.114 871.866Q442.983 873.05 440.76 874.048Q438.536 875.047 436.235 875.851Q433.934 876.656 431.573 877.262Q429.212 877.868 426.808 878.27C413.93 880.448 399.552 878.43 388.811 870.659C379.702 864.07 373.95 854.341 372.17 843.27Q371.986 842.132 371.86 840.986Q371.733 839.84 371.664 838.689Q371.596 837.538 371.585 836.385Q371.574 835.232 371.621 834.08Q371.668 832.928 371.773 831.78Q371.878 830.632 372.04 829.49Q372.203 828.349 372.422 827.217Q372.642 826.085 372.918 824.966Q373.194 823.846 373.526 822.742Q373.857 821.638 374.244 820.552Q374.631 819.466 375.072 818.401Q375.513 817.336 376.007 816.294Q376.501 815.252 377.047 814.236Q377.592 813.221 378.188 812.234Q378.784 811.247 379.429 810.291Q380.074 809.335 380.766 808.413C388.226 798.275 398.524 792.958 410.84 791.161Z"/>
	<path fill="#073348" d="M463.58 792.574C466.045 792.416 468.24 792.045 470.444 793.335C472.428 795.533 471.696 825.093 471.761 829.74Q493.935 829.884 516.108 829.613C516.145 825.652 515.491 795.33 516.867 794.279C518.83 792.779 524.033 793.455 526.443 793.497L526.444 848.078C526.435 856.061 527.464 869.748 525.729 876.841C524.606 878.046 523.238 878.07 521.697 878.31C519.902 878.2 518.695 878.186 517.202 877.123C515.282 874.478 516.116 843.743 516.084 838.469L471.583 838.489C471.565 844.075 472.273 872.076 471.455 875.212C471.15 876.38 470.188 877.254 469.123 877.733C467.677 878.385 465.147 878.613 463.732 877.741C462.538 877.005 462.077 876.355 461.881 874.998C460.672 866.67 461.712 848.434 461.768 839.049L461.882 811.387C461.905 806.335 461.66 801.068 462.12 796.041C462.256 794.55 462.68 793.748 463.58 792.574Z"/>
	<path fill="#073348" d="M324.435 792.069C325.129 792.087 325.816 792.1 326.506 792.187C328.516 792.439 329.708 793.17 330.839 794.854C333.822 799.297 337.343 810.328 339.637 815.69C347.601 834.302 356.489 852.82 363.533 871.798C364.02 873.111 364.651 874.522 364.288 875.938C364.104 876.658 363.592 877.022 362.936 877.339C361.607 877.982 358.323 877.979 356.982 877.341C355.734 876.747 354.876 875.953 354.105 874.814C352.36 872.233 351.63 868.86 350.482 865.985C348.875 861.958 346.737 857.961 344.961 853.979L327.625 854.34L304.352 854.43C302.694 858.578 300.75 862.6 299.089 866.737C298.058 869.305 297.423 872.642 295.929 874.949C295.455 875.68 294.63 876.279 293.867 876.671C292.144 877.554 289.087 878.112 287.252 877.266C286.058 876.716 285.925 876.48 285.593 875.322C287.164 869.684 318.767 795.23 319.94 793.817C320.992 792.549 322.901 792.377 324.435 792.069Z"/>
	<path fill="#FEFEFE" d="M325.149 804.839C327.617 808.026 339.194 839.723 342.059 846.407L325.25 846.534L307.75 846.582C312.61 832.533 319.013 818.389 325.149 804.839Z"/>
	<path fill="#073348" d="M615.284 791.154C627.134 789.44 641.199 792.25 650.969 799.283C648.486 804.135 644.804 808.33 641.275 812.44C635.508 809.322 629.927 806.861 623.295 806.298C619.536 805.978 615.552 806.848 612.7 809.457C611.39 810.656 610.436 812.619 610.569 814.42C611.041 820.826 629.051 825.495 634.313 827.772C638.466 829.569 642.68 831.758 646.13 834.722C651.106 838.995 653.923 844.701 654.37 851.241C654.846 858.188 653.431 864.392 648.629 869.677C641.792 877.199 632.186 878.307 622.663 878.943C611.601 878.967 599.486 876.739 590.379 870.009C588.99 868.983 587.948 867.94 587.779 866.129C587.487 863.011 590.387 858.97 592.425 856.888C593.481 855.809 594.938 854.624 596.492 854.406C598.22 854.163 612.25 862.872 620.021 862.733C623.696 862.667 628.805 860.682 631.167 857.781C631.913 856.865 632.47 855.881 632.176 854.661C630.608 848.154 614.08 843.604 608.663 841.238C605.406 839.814 602.191 838.145 599.268 836.114C594.114 832.532 590.173 827.678 589.188 821.327C588.238 815.206 589.871 808.052 593.55 803.008C598.748 795.88 606.793 792.385 615.284 791.154Z"/>
	<path fill="#073348" d="M161.942 792.696C171.959 792.413 183.024 791.603 192.692 794.659C197.818 796.28 202.617 799.25 205.036 804.224C207.313 808.907 207.296 814.948 205.542 819.793C203.029 826.735 197.907 830.137 191.575 833.121C193.742 833.811 195.911 834.502 197.976 835.465C203.211 837.906 207.949 841.849 209.851 847.469C211.794 853.211 210.547 859.11 208.062 864.44Q206.028 867.435 203.356 869.878C195.285 877.228 186.009 877.477 175.75 877.749C171.858 877.852 167.778 878.175 163.897 877.904C162.376 877.798 160.642 877.414 159.694 876.107C158.802 874.879 158.553 873.202 158.472 871.724C157.82 859.847 158.579 847.494 158.594 835.549L158.606 810.209C158.611 805.028 158.152 799.391 159.196 794.317C160.129 793.086 160.433 793.141 161.942 792.696Z"/>
	<path fill="#FEFEFE" d="M170.213 800.733C177.421 800.617 187.787 800.273 193.296 805.695C195.495 807.86 196.374 810.695 196.241 813.738C196.023 818.71 194.454 821.992 190.866 825.364C184.027 829.723 176.221 829.135 168.482 829.148C168.437 823.417 167.374 805.44 168.958 801.122L170.213 800.733Z"/>
	<path fill="#FEFEFE" d="M168.355 836.984C177.078 836.929 188.258 837.221 195.286 843.166C198.267 845.688 199.913 849.128 200.162 853.012C200.467 857.777 198.535 861.139 195.452 864.58C188.049 870.532 177.275 869.315 168.4 869.07L168.355 836.984Z"/>
	<path fill="#073348" d="M744.109 790.589C748.056 790.198 751.986 789.977 755.579 791.989C758.434 793.588 759.921 795.765 761.415 798.597C766.41 808.067 769.459 819.352 773.356 829.391C778.468 842.561 785.017 856.052 788.798 869.628C788.496 870.629 788.189 871.643 787.743 872.591C786.448 875.343 783.925 876.99 781.116 877.975C778.286 878.967 774.881 879.188 772.133 877.819C766.703 875.113 764.926 866.309 763.172 860.944L750.75 860.987L729.776 860.881C727.978 866.048 726.025 874.877 720.743 877.425C717.95 878.772 713.721 878.274 710.922 877.178C708.745 876.326 706.985 874.834 706.071 872.651C705.24 870.666 705.411 869.098 705.908 867.056C707.876 858.968 712.038 850.844 715.178 843.119C720.38 830.324 725.315 817.388 730.792 804.709C733.913 797.482 736.571 793.592 744.109 790.589Z"/>
	<path fill="#FEFEFE" d="M747.266 811.465C749.472 815.317 750.488 820.526 751.854 824.773L758.76 845.582L746.75 845.697Q740.942 845.762 735.133 845.714C739.387 834.37 742.774 822.738 747.266 811.465Z"/>
	<path fill="#073348" d="M606.294 651.582C606.467 651.571 606.639 651.558 606.811 651.549C611.641 651.299 617.002 651.594 620.697 655.162C622.76 657.154 623.383 659.416 623.792 662.193C625.03 670.585 624.22 680.178 624.241 688.699L624.243 747.079C633.134 747.325 658.704 745.47 665.173 748.413C667.903 749.656 669.993 751.813 670.979 754.663C672.071 757.819 672.008 762.128 670.46 765.128C668.658 768.622 665.311 770.411 661.698 771.495L628.442 771.612C622.531 771.624 616.37 772.011 610.5 771.445C608.084 771.212 605.626 770.631 603.421 769.598C600.221 768.1 597.801 764.898 596.636 761.617C594.896 756.717 595.161 673.695 595.706 664.082C595.825 661.98 596.092 660.247 597.065 658.359C599.106 654.397 602.2 652.893 606.294 651.582Z"/>
	<path fill="#073348" d="M374.969 910.275C396.587 909.085 418.693 909.988 440.3 911.131Q487.47 913.661 534.42 918.875C599.021 925.77 663.786 933.827 728.692 937.087C756.133 938.466 784.774 938.671 811.998 934.611C819.824 933.444 827.772 932.144 835.481 930.38C840.177 929.305 845.675 926.718 850.466 926.724C840.596 930.153 831.182 933.726 821.019 936.368C797.742 942.42 772.591 944.047 748.625 944.482C686.992 945.104 625.716 940.145 564.472 933.673C511.036 928.026 457.586 921.198 403.9 918.375C373.561 916.78 342.923 916.327 312.65 919.261Q299.85 920.483 287.187 922.712C281.829 923.647 275.638 926.004 270.256 925.75L270.499 925.521L270.731 925.875L270.253 925.784C270.468 925.723 270.686 925.669 270.898 925.599C304.224 914.637 340.086 911.282 374.969 910.275Z"/>
	<path fill="#073348" d="M412.708 653.098C424.84 652.529 437.263 653.209 449.432 653.183C459.656 653.162 471.233 652.1 481.286 653.38C483.365 653.644 485.224 654.379 486.834 655.748C489.45 657.975 490.763 661.357 490.917 664.735C491.082 668.367 489.912 672.343 487.301 674.961C482.324 679.956 468.993 678.183 462.486 678.115L462.358 753.625C462.443 758.711 462.899 764.969 459.41 769.119C457.078 771.892 453.067 771.721 449.762 771.885C445.212 772.111 440.872 772.124 437.353 768.757C435.582 767.062 434.882 765.616 434.467 763.212C432.901 754.124 433.972 743.505 433.98 734.25L433.946 678.038C426.579 677.787 415.96 679.552 409.275 676.381C406.59 675.107 404.379 672.91 403.499 670.027C402.45 666.585 402.997 661.501 404.734 658.357C406.427 655.292 409.49 653.962 412.708 653.098Z"/>
	<path fill="#073348" d="M514.901 653.171C524.532 652.638 534.395 653.005 544.052 652.976C551.391 652.954 559.424 652.277 566.671 653.296C569.23 653.655 571.843 654.216 573.899 655.867C576.317 657.809 577.545 660.678 577.768 663.729C578.014 667.1 577.338 670.68 574.968 673.209C573.035 675.272 570.338 676.518 567.599 677.086C559.833 678.698 540.699 677.503 531.478 677.737C531.249 684.824 531.374 691.947 531.371 699.039C539.753 699.027 559.321 697.17 565.631 702.382C567.987 704.328 569.169 707 569.325 710.026C569.484 713.126 568.664 716.249 566.5 718.545C564.787 720.361 562.5 721.447 560.099 722.025C553.202 723.686 538.609 722.596 531.061 722.604Q530.965 734.516 531.078 746.427C532.701 749.755 565.282 745.78 572.282 748.99C574.963 750.219 577.208 752.712 578.077 755.537C579.14 758.99 578.485 763.191 576.619 766.257C575.082 768.784 572.919 770.339 570.029 770.951C563.857 772.257 521.801 772.469 514.667 771.563Q513.809 771.459 512.969 771.252Q512.129 771.046 511.321 770.74Q510.512 770.433 509.746 770.032Q508.98 769.631 508.268 769.14C505.401 767.147 504.499 764.69 503.933 761.346C502.799 754.642 503.443 747.074 503.45 740.246L503.615 699.891C503.666 688.602 502.53 676.767 503.423 665.556C503.649 662.715 504.394 659.987 506.128 657.684C508.402 654.664 511.307 653.74 514.901 653.171Z"/>
	<path fill="#073348" d="M810.665 650.679C811.502 650.558 812.328 650.536 813.173 650.504C824.333 650.089 840.622 652.348 848.999 660.553C850.863 662.379 852.135 664.616 852.043 667.285C851.899 671.438 848.424 676.131 845.373 678.772C837.03 685.992 826.484 674.017 816.967 673.54C813.038 673.343 809.218 674.61 806.387 677.378C804.26 679.459 802.587 682.337 802.643 685.391C802.856 697.007 824.75 699.747 833.283 702.794C839.173 704.897 845.162 707.785 849.657 712.227C855.761 718.261 858.461 727.261 858.499 735.682C858.542 745.302 855.5 754.722 848.544 761.564C838.671 771.275 826.418 773.076 813.176 773.028C802.161 772.594 791.602 769.765 782.655 763.134C779.146 760.534 775.395 757.06 774.877 752.475C774.487 749.029 776.326 745.831 778.488 743.302C779.786 741.783 782.296 738.828 784.221 738.269C790.768 736.366 803.217 751.755 817.888 750.483C821.65 750.157 825.161 749.077 827.629 746.086C829.521 743.795 830.094 741.224 829.705 738.282C828.269 727.425 810.553 724.98 802.037 722.087C797.124 720.418 792.225 718.31 788.041 715.193C780.799 709.799 776.657 701.753 775.441 692.892C774.106 683.162 775.808 673.043 781.954 665.189C789.133 656.013 799.408 652.107 810.665 650.679Z"/>
	<path fill="#073348" d="M697.917 653.131C708.749 652.704 719.668 652.944 730.511 652.94C736.951 652.937 744.049 652.352 750.388 653.323C752.597 653.662 754.42 654.545 756.13 655.977C758.74 658.165 760.541 661.433 760.71 664.862C760.846 667.635 759.12 671.957 757.143 673.944C755.311 675.786 752.445 676.443 749.966 676.833C745.746 677.498 741.191 677.142 736.917 677.184L714.662 677.459Q714.594 688.689 714.778 699.917C723.695 699.899 743.466 697.562 750.415 703.318C752.811 705.303 754.004 708.165 754.175 711.23C754.344 714.275 753.537 717.165 751.393 719.388C744.578 726.457 724.217 724.17 714.761 724.074C714.61 731.077 714.799 738.119 714.831 745.125L715.05 746.675C718.352 749.116 748.132 745.197 755.989 748.432C758.697 749.546 760.594 751.572 761.658 754.287C763.03 757.788 762.987 761.979 761.352 765.384C760.288 767.597 758.158 770.053 755.722 770.766C749.817 772.493 705.174 772.159 697.179 771.412C695.718 771.275 694.4 771.001 693.132 770.235C690.094 768.399 687.696 765.643 687.011 762.076C685.52 754.312 686.581 731.126 686.589 721.786L686.518 686.006C686.504 679.475 686.232 672.811 686.666 666.297C686.848 663.568 686.995 660.726 688.556 658.389C690.763 655.085 694.172 653.818 697.917 653.131Z"/>
	<path fill="#073348" d="M229.444 704.367L229.444 677.008C229.452 672.423 229.075 667.386 229.659 662.856C230.087 659.531 232.036 657.141 234.724 655.234C238.64 652.456 243.909 651.557 248.593 652.423C251.682 652.995 254.371 654.5 256.141 657.146C257.397 659.024 257.39 660.984 257.507 663.166C257.905 670.654 257.575 678.298 257.571 685.802L257.56 728.399C257.558 736.766 258.472 759.758 257.128 765.929C256.348 769.506 254.383 771.487 251.353 773.347C248.507 774.434 245.291 774.742 242.26 774.802C238.947 774.868 235.627 773.754 233.291 771.344C231.559 769.557 230.488 767.144 229.99 764.728C228.458 757.292 229.489 738.149 229.49 729.171Q208.717 729.432 187.942 729.439C187.564 741.788 189.244 756.461 187.11 768.414C184.558 771.576 182.127 773.602 178.025 774.337C173.409 775.165 167.712 774.641 163.842 771.83C161.457 770.098 160.229 767.893 159.828 765C158.866 758.062 159.395 750.568 159.392 743.569L159.407 705.863Q159.519 692.957 159.453 680.05C159.377 674.333 158.828 668.312 159.334 662.624C159.524 660.499 159.848 658.254 161.232 656.545C163.85 653.311 168.645 652.632 172.529 652.189C176.718 652.122 181.706 652.781 184.843 655.821C186.314 657.246 187.067 658.882 187.452 660.879C188.497 666.312 187.968 672.45 187.948 677.98Q187.871 691.189 187.939 704.399Q208.692 704.614 229.444 704.367Z"/>
	<path fill="#073348" d="M334.284 652.197Q335.818 652.064 337.357 652.006Q338.896 651.948 340.437 651.966Q341.977 651.984 343.514 652.078Q345.051 652.172 346.582 652.341Q348.113 652.51 349.633 652.755Q351.154 652.999 352.661 653.318Q354.168 653.637 355.657 654.03Q357.146 654.422 358.614 654.887Q360.082 655.353 361.526 655.89Q362.969 656.427 364.385 657.034Q365.8 657.642 367.184 658.318Q368.567 658.994 369.916 659.738Q371.265 660.482 372.575 661.291Q373.886 662.099 375.155 662.972Q376.424 663.844 377.649 664.778Q378.874 665.712 380.051 666.705Q381.165 667.636 382.232 668.622Q383.298 669.607 384.315 670.645Q385.331 671.682 386.295 672.768Q387.259 673.854 388.167 674.987Q389.076 676.12 389.927 677.296Q390.779 678.473 391.571 679.69Q392.363 680.907 393.093 682.162Q393.824 683.417 394.492 684.706Q395.159 685.996 395.762 687.317Q396.365 688.638 396.901 689.988Q397.438 691.337 397.907 692.711Q398.376 694.086 398.776 695.482Q399.177 696.878 399.507 698.292Q399.838 699.706 400.098 701.134Q400.358 702.563 400.547 704.003Q400.736 705.443 400.853 706.89Q400.986 708.389 401.043 709.892Q401.099 711.395 401.08 712.9Q401.06 714.404 400.964 715.905Q400.867 717.407 400.695 718.901Q400.522 720.396 400.274 721.879Q400.026 723.363 399.703 724.832Q399.379 726.302 398.982 727.753Q398.584 729.204 398.113 730.632Q397.643 732.061 397.1 733.464Q396.557 734.867 395.944 736.241Q395.33 737.615 394.648 738.956Q393.965 740.296 393.216 741.6Q392.466 742.905 391.651 744.169Q390.836 745.434 389.957 746.655Q389.079 747.877 388.14 749.052Q387.201 750.227 386.203 751.353C375.833 763.249 359.961 771.891 344.123 772.992C328.119 774.563 310.848 770.116 298.249 759.968C286.311 750.353 278.041 736.156 276.501 720.843C274.829 704.219 279.422 688.242 290.04 675.287C301.521 661.278 316.431 653.997 334.284 652.197Z"/>
	<path fill="#FEFEFE" d="M334.303 677.653C342.597 676.994 350.794 678.499 357.795 683.157C365.732 688.437 371.707 696.87 373.467 706.29Q373.626 707.115 373.743 707.946Q373.861 708.778 373.938 709.614Q374.015 710.451 374.05 711.29Q374.086 712.129 374.08 712.969Q374.074 713.809 374.027 714.648Q373.98 715.486 373.892 716.321Q373.803 717.157 373.674 717.987Q373.545 718.817 373.375 719.639Q373.205 720.462 372.995 721.275Q372.785 722.088 372.535 722.89Q372.285 723.692 371.996 724.48Q371.707 725.269 371.379 726.042Q371.052 726.816 370.687 727.572Q370.322 728.329 369.92 729.066Q369.518 729.804 369.08 730.521Q368.642 731.238 368.17 731.932C362.16 740.684 353.24 745.845 342.924 747.697C333.385 748.745 324.588 746.891 316.709 741.274Q316.027 740.794 315.369 740.282Q314.711 739.769 314.08 739.224Q313.448 738.679 312.845 738.103Q312.241 737.527 311.667 736.922Q311.092 736.318 310.549 735.685Q310.006 735.052 309.494 734.393Q308.983 733.734 308.505 733.05Q308.027 732.367 307.584 731.66Q307.14 730.954 306.733 730.226Q306.325 729.499 305.954 728.751Q305.583 728.004 305.25 727.24Q304.916 726.475 304.621 725.695Q304.326 724.915 304.07 724.121Q303.815 723.327 303.599 722.521Q303.383 721.716 303.207 720.901Q303.031 720.085 302.896 719.262Q302.743 718.393 302.635 717.517Q302.526 716.641 302.461 715.76Q302.396 714.88 302.375 713.997Q302.354 713.115 302.377 712.233Q302.401 711.35 302.468 710.47Q302.535 709.59 302.647 708.714Q302.758 707.839 302.913 706.97Q303.067 706.101 303.265 705.24Q303.464 704.38 303.704 703.531Q303.945 702.682 304.228 701.845Q304.511 701.009 304.835 700.188Q305.16 699.367 305.525 698.564Q305.89 697.76 306.294 696.975Q306.699 696.191 307.142 695.428Q307.586 694.664 308.067 693.924Q308.548 693.184 309.065 692.469C315.327 683.793 323.937 679.354 334.303 677.653Z"/>
	<path fill="#073348" d="M411.428 82.2206C426.302 81.4795 441.844 84.0946 455.466 90.1549C479.85 101.003 498.277 123.134 509.258 147.002C512.26 153.527 514.454 160.488 517.002 167.205C536.943 136.707 571.289 110.792 606.766 102.049C646.371 92.2885 684.668 103.968 718.495 124.579C698.136 121.264 677.706 119.111 657.244 122.892C661.775 125.611 665.573 129.552 669.563 133C652.17 131.857 636 133.4 618.924 136.559C623.971 141.036 629.635 144.662 634.365 149.523C619.379 148.885 603.721 149.444 589.844 155.677C592.24 159.31 595.07 162.179 598.351 165.008C588.527 166.509 578.614 168.18 569.917 173.29C567.822 174.521 565.327 175.921 564.688 178.42C565.075 179.55 565.293 180.178 566.463 180.767C569.281 182.184 585.591 174.984 589.436 173.644C598.344 170.538 607.69 168.496 616.979 166.901C644.398 162.192 667.534 163.931 692.911 176.235C721.698 190.194 740.721 210.565 751.276 240.823C740.405 229.193 725.826 220.787 710.748 215.924C714.319 221.189 717.381 226.575 719.671 232.514C715.175 230.031 711.187 226.427 706.983 223.468C695.49 215.38 683.067 209.04 669.385 205.699C673.02 211.288 676.127 217.36 678.07 223.746C659.92 213.651 648.822 205.801 627.06 205.412C632.565 210.423 636.544 215.587 639.099 222.6C623.108 216.483 607.16 210.764 589.749 212.817C592.574 216.382 595.909 219.553 598.828 223.063C584.317 223.185 566.546 217.496 553.396 225.738L558.493 232.966C563.378 232.194 568.573 232.037 573.514 231.749C611.745 229.521 643.846 239.799 672.426 265.32C701.237 291.047 715.61 322.133 717.803 360.57C722.242 362.989 726.683 365.42 730.912 368.195Q732.394 369.151 733.852 370.144Q735.31 371.137 736.743 372.166Q738.176 373.195 739.582 374.259Q740.988 375.324 742.368 376.423Q743.747 377.523 745.099 378.656Q746.45 379.79 747.773 380.957Q749.095 382.124 750.388 383.324Q751.681 384.523 752.944 385.755Q754.206 386.987 755.438 388.25Q756.669 389.513 757.868 390.806Q759.068 392.1 760.234 393.423Q761.401 394.746 762.534 396.097Q763.667 397.449 764.766 398.829Q765.865 400.209 766.929 401.615Q767.993 403.022 769.022 404.455Q770.05 405.888 771.043 407.346Q772.035 408.805 772.991 410.287Q773.946 411.77 774.864 413.276Q775.782 414.782 776.663 416.311Q777.543 417.84 778.384 419.39Q779.226 420.94 780.029 422.511Q780.831 424.081 781.594 425.672Q782.357 427.262 783.08 428.871Q783.803 430.48 784.485 432.106Q785.168 433.733 785.809 435.376Q786.451 437.019 787.051 438.678Q787.651 440.336 788.21 442.009Q788.769 443.682 789.285 445.369Q789.802 447.056 790.276 448.755Q790.75 450.454 791.181 452.164Q791.613 453.874 792.001 455.595Q792.39 457.315 792.735 459.045Q793.05 460.64 793.331 462.242Q793.612 463.843 793.859 465.45Q794.105 467.057 794.317 468.669Q794.529 470.281 794.707 471.897Q794.884 473.514 795.027 475.133Q795.17 476.753 795.278 478.375Q795.386 479.997 795.459 481.622Q795.532 483.246 795.57 484.871Q795.609 486.497 795.612 488.123Q795.616 489.749 795.584 491.374Q795.553 493 795.487 494.624Q795.421 496.249 795.32 497.872Q795.219 499.494 795.083 501.115Q794.947 502.735 794.777 504.352Q794.606 505.969 794.401 507.582Q794.196 509.195 793.956 510.803Q793.717 512.411 793.443 514.014Q793.169 515.616 792.86 517.213Q792.552 518.809 792.21 520.398Q791.867 521.988 791.491 523.569Q791.114 525.151 790.704 526.724Q790.294 528.298 789.85 529.862Q789.406 531.426 788.928 532.98Q788.451 534.535 787.94 536.078Q787.43 537.622 786.886 539.154Q786.343 540.687 785.767 542.207Q785.19 543.727 784.582 545.235Q783.973 546.743 783.332 548.237Q782.691 549.731 782.018 551.211Q781.345 552.691 780.641 554.157Q779.937 555.622 779.201 557.072Q778.466 558.522 777.699 559.956C773.377 567.884 767.919 574.621 763.015 582.103C790.158 580.451 827.963 584.505 853.507 593.994C839.445 594.093 823.82 591.196 809.533 590.248C765.74 587.343 723.632 591.086 681.993 605.407C692.124 608.619 702.042 615.294 709.781 622.469C701.023 620.679 692.643 616.829 684.276 613.744Q671.328 609.055 658.04 605.443C617.03 594.147 565.85 586.53 523.486 591.817C511.505 593.312 500.094 597.345 488.233 598.923L487.396 599.03C485.231 600.884 481.713 603.812 478.704 603.717C473.462 603.552 473.691 595.023 472.304 591.296C471.331 588.683 469.636 586.361 467.561 584.515C463.523 580.921 457.993 579.458 452.665 579.789Q451.325 579.859 450.006 580.112Q448.688 580.365 447.417 580.796Q446.146 581.228 444.946 581.829Q443.745 582.43 442.639 583.19C432.221 590.405 437.085 599.832 431.942 604.7C430.728 605.848 429.26 605.914 427.71 605.657C425.476 605.286 423.325 604.114 422.053 602.193C419.793 598.78 421.7 593.668 422.588 590.078C399.023 591.145 379.988 601.562 359.421 611.697C349.95 607.47 341.549 602.268 331.622 598.784Q328.581 597.762 325.49 596.902Q322.398 596.042 319.266 595.347Q316.134 594.651 312.969 594.123Q309.804 593.595 306.616 593.234Q303.428 592.874 300.225 592.683Q297.022 592.492 293.813 592.471Q290.605 592.45 287.4 592.598Q284.195 592.747 281.002 593.065C276.256 593.573 271.576 595.212 266.825 595.477C265.162 595.569 264.611 595.25 263.399 594.143C263.026 592.708 262.989 592.675 263.575 591.322C269.847 585.718 294.331 586.278 302.719 586.096Q305.65 574.3 308.092 562.394C304.269 563.428 300.979 565.35 297.151 563.331C296.667 562.638 296.287 562.367 296.278 561.476C296.262 559.974 296.931 558.671 297.951 557.593C301.244 554.112 305.609 554.491 309.993 554.453Q313.312 543.007 316.36 531.486C304.311 530.748 291.774 531.558 279.751 532.468Q266.758 533.401 253.83 534.989Q240.901 536.578 228.069 538.818Q215.237 541.058 202.535 543.943Q189.832 546.829 177.292 550.353C218.477 529.708 273.535 524.143 319.023 523.835C339.583 459.574 365.125 402.69 402.514 346.314C409.873 335.219 417.202 324.027 425.404 313.532Q441.764 292.481 459.737 272.789C466.127 265.787 473.193 260.014 478.792 252.265Q469.854 254.751 460.861 257.029C463.428 251.365 465.992 245.762 468.999 240.314C446.132 248.824 439.513 260.879 423.928 277.606C424.582 269.312 426.63 261.984 430.118 254.454C414.092 261.198 401.473 272.979 394.691 289.225C393.053 281.182 393.991 274.643 396.235 266.842C376.638 277.808 372.928 288.341 363.851 307.452C362.786 299.729 363.049 292.561 363.548 284.815C352.399 293.758 343.61 307.707 338.011 320.74C336.482 324.3 335.295 329.799 332.845 332.626C332.643 332.369 332.405 332.136 332.238 331.855C329.937 327.959 331.796 316.241 332.373 312.024C313.455 332.551 302.162 351.642 293.547 378.357C292.28 373.412 291.095 368.551 290.315 363.498C285.24 330.606 293.276 295.4 312.99 268.497C334.458 239.197 368.706 219.457 403.472 210.2C411.853 207.969 420.288 206.619 428.847 205.29L435.059 195.616C427.85 196.209 420.684 196.584 413.504 197.539C403.915 198.815 394.353 200.686 384.681 201.188C390.382 195.727 396.605 190.796 402.692 185.773C383.583 189.232 365.328 195.611 346.417 199.855C351.193 193.013 356.923 187.777 363.418 182.612C343.788 186.939 324.988 194.312 305.662 199.812Q312.36 192.262 319.284 184.918C309.562 187.365 299.533 189.503 290.252 193.347C277.634 198.574 266.284 206.298 254.246 212.655C260.57 198.056 271.121 183.853 283.056 173.467C312.306 148.01 351.718 136.955 390.03 139.838C430.068 142.851 463.077 162.726 488.794 192.824C484.433 176.671 472.767 171.773 460.711 162.051C465.654 160.46 469.912 160.493 475.057 160.632C467.848 148.738 452.878 143.927 440.148 140.571C444.737 137.509 449.838 135.661 454.944 133.67C450.513 130.866 446.002 128.554 441.094 126.692C437.041 125.155 421.133 121.3 419.021 119.447C420.145 117.156 428.95 114.585 431.606 113.489C418.186 107.12 401.774 106.28 387.127 105.182C390.801 102.137 394.843 100.303 399.153 98.3454C388.155 95.5737 376.452 94.8272 365.192 93.5574C380.306 87.2476 394.995 82.9595 411.428 82.2206Z"/>
	<path fill="#FEFEFE" d="M489.634 252.085C493.974 251.666 497.419 252.508 501.083 254.896C502.244 255.652 502.775 256.132 503.054 257.481L502.323 258.201C500.126 258.791 497.931 258.365 495.701 258.124C490.619 258.348 485.573 258.567 480.484 258.401C483.368 255.44 485.661 253.536 489.634 252.085Z"/>
	<path fill="#FEFEFE" d="M627.016 106.212Q629.467 105.96 631.931 106.006Q634.394 106.053 636.834 106.397C600.717 112.607 569.715 132.517 543.194 156.919C536.856 162.75 530.598 168.583 524.836 174.99L519.998 180.366C522.93 171.268 526.705 164.528 532.93 157.213C557.374 128.495 588.957 109.344 627.016 106.212Z"/>
	<path fill="#FEFEFE" d="M448.556 295.52C455.083 294.757 461.764 296.561 467.655 299.298C470.369 300.558 474.544 302.644 475.245 305.858C475.598 307.475 474.628 308.781 473.834 310.103C471.813 313.469 461.412 329.559 458.725 330.253C452.984 326.62 447.342 323.216 440.782 321.281C438.063 320.48 434.317 320.598 431.938 319.262C431.034 318.755 430.998 318.726 430.769 317.691C435.589 309.789 442.275 302.303 448.556 295.52Z"/>
	<path fill="#FEFEFE" d="M483.834 264.195C488.546 263.442 502.144 263.044 506.209 265.658C507.593 266.548 507.821 267.528 508.066 269.069C507.359 271.805 484.326 296.763 480.387 301.557C471.89 294.787 464.75 291.701 454.382 288.753C455.498 287.212 456.608 285.672 457.832 284.214C462.569 278.574 471.804 267.63 478.497 265.031C480.11 264.405 482.118 264.349 483.834 264.195Z"/>
	<path fill="#FEFEFE" d="M412.696 88.7352C434.717 89.0717 454.8 94.1497 472.158 108.327C492.459 124.907 509.147 152.628 511.802 178.92C510.34 177.081 508.966 175.166 507.565 173.28C498.676 160.054 491.97 145.47 481.988 132.995Q481.076 131.866 480.137 130.76Q479.198 129.654 478.232 128.571Q477.267 127.488 476.275 126.428Q475.284 125.369 474.266 124.334Q473.249 123.299 472.208 122.289Q471.166 121.279 470.1 120.295Q469.033 119.31 467.944 118.352Q466.854 117.394 465.742 116.462Q464.629 115.531 463.494 114.627Q462.359 113.723 461.203 112.846Q460.046 111.97 458.869 111.122Q457.691 110.274 456.494 109.455Q455.296 108.635 454.079 107.845Q452.861 107.056 451.625 106.295Q450.389 105.535 449.135 104.806Q447.881 104.076 446.61 103.376Q445.338 102.677 444.05 102.009Q442.762 101.341 441.458 100.704Q440.154 100.068 438.835 99.4627Q437.516 98.8579 436.183 98.2853Q434.85 97.7126 433.503 97.1725Q432.156 96.6324 430.797 96.1252Q429.437 95.6179 428.066 95.1438Q426.694 94.6697 425.312 94.229Q423.929 93.7884 422.536 93.3814Q421.144 92.9744 419.741 92.6014Q418.339 92.2283 416.928 91.8895Q415.517 91.5506 414.099 91.246Q412.68 90.9415 411.254 90.6715Q409.828 90.4015 408.397 90.1661Q406.965 89.9308 405.528 89.7303Q404.091 89.5298 402.649 89.3643C405.982 89.0421 409.352 88.9255 412.696 88.7352Z"/>
	<path fill="#FEFEFE" d="M426.647 324.098C437.689 326.031 448.064 328.168 456.125 336.448C452.731 342.31 440.096 367.218 437.298 369.767L436.256 369.327C425.237 360.76 417.927 360.773 405.186 357.219L404.611 357.054C408.143 348.217 419.845 330.925 426.647 324.098Z"/>
	<path fill="#FEFEFE" d="M354.327 569.214C367.64 568.378 380.183 572.18 391.341 579.308C391.471 583.045 391.41 586.594 390.817 590.291C384.307 593.09 377.646 595.431 371.27 598.554Q365.576 601.695 359.775 604.636C352.348 601.452 345.065 597.306 337.923 593.494C338.142 586.041 339.203 578.552 340.211 571.172C344.808 570.041 349.616 569.574 354.327 569.214Z"/>
	<path fill="#FEFEFE" d="M641.777 170.726Q643.921 170.693 646.065 170.75Q648.208 170.807 650.348 170.954Q652.487 171.102 654.618 171.339Q656.749 171.576 658.869 171.902Q660.988 172.228 663.092 172.643Q665.196 173.058 667.28 173.561Q669.365 174.064 671.426 174.655Q673.488 175.245 675.523 175.921Q677.557 176.598 679.562 177.359Q681.567 178.12 683.538 178.965Q685.509 179.81 687.442 180.737Q689.376 181.663 691.269 182.671Q693.162 183.678 695.011 184.764Q696.86 185.85 698.662 187.013Q700.464 188.175 702.215 189.413Q703.966 190.65 705.664 191.96C695.573 188.369 685.495 184.929 674.972 182.818C645.943 176.996 615.726 181.623 587.879 190.791C571.138 196.696 555.247 203.17 539.416 211.168C537.391 209.754 535.091 208.643 532.926 207.454C549.262 192.365 591.527 178.703 613.765 174.186C623.063 172.298 632.31 171.282 641.777 170.726Z"/>
	<path fill="#FEFEFE" d="M401.694 363.029C402.131 363.019 402.568 363.003 403.005 363.016C414.347 363.365 426.967 367.658 434.764 376.132C432.194 382.743 429.314 389.223 426.725 395.825C425.049 400.099 423.134 407.873 420.71 411.27C420.154 412.05 420.067 411.869 419.185 412.029C411.524 405.536 405.533 401.842 395.581 399.827C392.218 399.147 388.539 398.749 385.39 397.369C385.353 397.233 385.298 397.102 385.279 396.963C384.749 392.965 398.461 367.51 401.694 363.029Z"/>
	<path fill="#FEFEFE" d="M367.869 460.667L368.545 460.645C382 460.264 394.103 461.281 404.279 470.889C403.393 478.233 401.405 485.566 400.052 492.85C399.011 498.45 398.577 504.275 397.289 509.808C396.942 511.3 396.918 511.972 395.857 513.053C394.002 513.577 392.342 512.668 390.636 511.999C377.537 506.582 365.187 506.36 351.272 506.456C352.102 498.881 359.129 468.739 362.769 462.136C364.245 460.959 366.062 460.912 367.869 460.667Z"/>
	<path fill="#FEFEFE" d="M381.899 404.214C383.666 404.066 385.48 404.024 387.253 404.11C400.307 404.749 409.087 409.846 417.789 419.2C415.767 426.865 413.285 434.409 411.24 442.07C409.71 447.799 408.383 457.421 405.792 462.357C404.331 462.645 403.166 461.918 401.866 461.337C389.046 455.609 378.298 454.457 364.415 454.467C365.771 449.042 378.237 408.047 380.832 404.93C381.106 404.601 381.544 404.453 381.899 404.214Z"/>
	<path fill="#FEFEFE" d="M581.278 237.718C612.856 236.538 640.945 247.69 665.161 267.606C693.35 290.79 707.043 321.125 710.644 356.906C708.184 356.218 705.456 355.725 703.338 354.257C698.88 343.537 694.375 332.935 688.776 322.751C672.804 293.695 646.25 267.343 615.895 253.836C600.801 247.121 584.71 242.943 568.884 238.337L581.278 237.718Z"/>
	<path fill="#FEFEFE" d="M366.29 146.296C399.918 143.395 432.584 151.999 459.09 173.236C465.102 178.053 484.992 195.993 485.294 204.07C485.325 204.902 485.031 204.928 484.501 205.459C483.362 205.481 482.927 205.506 481.91 204.917C475.531 201.226 467.471 193.722 461.019 189.165Q455.864 185.448 450.45 182.117Q445.037 178.786 439.395 175.861Q433.752 172.935 427.911 170.429Q422.07 167.924 416.061 165.852C380.648 155.271 341.378 158.978 307.149 172.47C298.255 175.975 289.853 180.453 281.44 184.964Q282.494 183.913 283.571 182.886Q284.648 181.859 285.748 180.856Q286.847 179.853 287.969 178.875Q289.091 177.897 290.234 176.944Q291.377 175.991 292.542 175.064Q293.706 174.136 294.89 173.235Q296.075 172.334 297.279 171.46Q298.483 170.585 299.707 169.738Q300.93 168.89 302.172 168.07Q303.414 167.25 304.674 166.458Q305.935 165.666 307.212 164.902Q308.489 164.138 309.783 163.403Q311.077 162.668 312.387 161.962Q313.697 161.255 315.023 160.578Q316.348 159.902 317.689 159.254Q319.029 158.607 320.383 157.99Q321.738 157.373 323.105 156.786Q324.473 156.199 325.853 155.643Q327.234 155.086 328.626 154.561Q330.019 154.036 331.423 153.541Q332.827 153.047 334.241 152.584Q335.656 152.121 337.08 151.69Q338.505 151.259 339.938 150.86Q341.372 150.46 342.814 150.093Q344.257 149.725 345.707 149.39Q347.157 149.055 348.614 148.752Q350.071 148.449 351.535 148.179Q352.998 147.909 354.468 147.671Q355.937 147.434 357.411 147.229Q358.885 147.024 360.363 146.852Q361.842 146.68 363.324 146.541Q364.805 146.402 366.29 146.296Z"/>
	<path fill="#FEFEFE" d="M356.792 512.202C369.737 510.497 384.492 514.284 395.563 520.964C395.503 528.719 394.153 536.785 393.46 544.522C392.627 553.835 392.346 563.253 391.084 572.517C388.408 571.36 385.793 569.93 383.18 568.627C375.45 564.382 365.456 563.116 356.767 563.263C353.307 563.321 344.62 564.77 341.914 563.516C340.037 559.996 348.678 519.928 350.468 512.944C352.56 512.619 354.688 512.44 356.792 512.202Z"/>
	<path fill="#FEFEFE" d="M428.024 212.795C443.608 210.963 462.688 211.622 475.69 221.241C463.447 225.632 450.838 225.739 438.029 226.977C426.18 228.123 414.171 230.009 402.748 233.416C365.538 244.512 327.147 273.978 308.72 308.143Q306.497 312.265 304.555 316.526Q302.614 320.788 300.964 325.171Q299.313 329.553 297.961 334.037Q296.609 338.521 295.562 343.085C294.909 316.346 305.937 287.734 322.597 267.048C347.444 236.197 389.196 216.832 428.024 212.795Z"/>
	<path fill="#FEFEFE" d="M400.977 532.951L401.649 532.961C446.295 533.832 515.209 550.349 547.191 583.435C538.586 583.602 529.907 584.368 521.341 585.202C511.527 586.074 502.065 588.15 492.478 590.326C489.997 588.13 488.024 587.388 484.761 586.844C483.084 584.371 481.344 582.006 479.259 579.856C472.902 573.301 464.417 569.197 455.216 569.117C442.77 569.008 434.055 575.173 425.556 583.584C416.082 583.402 406.885 584.902 397.718 587.203C398.068 569.159 398.662 550.863 400.977 532.951Z"/>
	<path fill="#FEFEFE" d="M590.321 265.282C597.52 268.624 614.6 298.418 621.496 306.468C621.5 306.233 621.5 305.998 621.506 305.763C621.704 297.856 620.196 289.674 619.217 281.828C623.727 287.066 628.313 292.307 632.157 298.061C638.005 306.817 642.794 316.487 648.227 325.527C649.214 318.901 649.446 312.032 649.473 305.34C654.518 313.076 658.634 321.428 662.571 329.77C664.651 334.175 666.546 339.281 669.249 343.325C670.065 344.545 670.401 344.75 671.708 345.298C673.317 342.27 673.995 338.291 674.978 334.979C677.55 339.831 679.905 344.74 682.202 349.725C672.287 347.662 662.135 347.547 652.05 347.494C622.11 346.968 593.057 358.947 568.949 375.922C572.049 368.089 575.639 360.705 578.144 352.605C586.643 325.125 582.541 298.05 575.103 271.009C582.946 277.571 589.42 286.856 595.13 295.31C595.045 284.808 591.778 275.529 590.321 265.282Z"/>
	<path fill="#FEFEFE" d="M527.314 224.15C530.724 223.763 533.979 223.722 537.353 224.467C543.882 225.908 548.675 230.091 552.14 235.644C562.116 251.633 568.229 271.54 572.166 289.877C579.387 323.511 573.884 356.469 554.474 385.084C536.657 411.351 522.685 423.742 514.869 457.245C507.052 490.749 511.772 527.76 530.033 557.123C517.648 553.063 505.771 547.547 493.402 543.391C463.399 533.309 433.273 528.268 401.831 525.473Q402.741 516.855 403.95 508.273Q405.159 499.692 406.666 491.157Q408.172 482.623 409.975 474.146Q411.777 465.669 413.874 457.261Q415.97 448.852 418.357 440.521Q420.745 432.19 423.42 423.947Q426.096 415.704 429.056 407.559Q432.017 399.414 435.259 391.377Q438.323 383.912 441.721 376.593Q445.119 369.274 448.845 362.116Q452.571 354.958 456.617 347.976Q460.663 340.995 465.021 334.203Q469.379 327.412 474.04 320.824Q478.7 314.237 483.655 307.867Q488.609 301.498 493.846 295.359Q499.083 289.22 504.593 283.324C507.645 280.123 512.817 273.508 516.451 271.464C516.548 271.603 516.664 271.73 516.742 271.88C519.07 276.369 512.876 304.442 511.394 310.852C516.661 307.223 521.598 303.245 526.483 299.126C525.392 308.217 523.581 317.713 521.036 326.511C519.196 332.872 516.859 339.073 515.034 345.448C520.802 340.099 526.829 335.066 532.529 329.631C528.488 346.954 523.472 362.947 516.703 379.412C521.991 375.383 527.005 370.889 531.785 366.274C531.38 377.436 527.755 390.419 523.241 400.619C520.611 406.56 517.479 412.265 514.87 418.22C533.964 406.892 546.233 382.662 552.993 362.083C565.488 324.047 560.396 282.698 542.13 247.438C540.007 243.341 537.679 239.119 535.038 235.331C532.703 231.982 529.489 228.716 527.732 225.057C527.588 224.757 527.453 224.453 527.314 224.15Z"/>
	<path fill="#FEFEFE" d="M648.153 355.708C649.695 355.499 651.353 355.508 652.911 355.454C686.518 354.275 719.297 365.676 743.929 388.83Q745.157 389.975 746.357 391.151Q747.556 392.326 748.726 393.531Q749.896 394.736 751.036 395.97Q752.176 397.203 753.284 398.464Q754.393 399.726 755.471 401.014Q756.548 402.302 757.593 403.617Q758.638 404.932 759.65 406.272Q760.663 407.612 761.641 408.977Q762.62 410.341 763.565 411.73Q764.509 413.119 765.419 414.53Q766.329 415.942 767.204 417.375Q768.078 418.809 768.917 420.264Q769.756 421.719 770.559 423.194Q771.361 424.669 772.127 426.164Q772.893 427.659 773.621 429.172Q774.35 430.685 775.041 432.216Q775.732 433.746 776.385 435.294Q777.037 436.841 777.651 438.404Q778.266 439.967 778.841 441.545Q779.416 443.123 779.953 444.714Q780.489 446.306 780.985 447.91Q781.482 449.515 781.938 451.131Q782.395 452.747 782.811 454.374Q783.228 456.001 783.604 457.638Q783.98 459.275 784.315 460.92Q784.651 462.566 784.945 464.219Q785.24 465.872 785.493 467.533Q785.747 469.193 785.959 470.859Q786.171 472.525 786.342 474.195Q786.513 475.866 786.643 477.541Q786.772 479.215 786.86 480.892Q786.948 482.569 786.995 484.248C787.948 519.729 775.984 556.878 751.28 582.864C748.462 583.244 745.625 583.442 742.791 583.669L743.401 582.932C759.187 563.84 771.261 544.151 777.225 519.816C778.718 513.724 780.257 506.867 779.536 500.557C778.716 493.37 775.161 486.072 771.922 479.711C758.765 453.878 743.472 438.59 720.965 421.044C719.542 423.505 718.183 425.389 716.244 427.453C723.141 440.783 727.556 454.815 730.64 469.457C737.213 500.675 737.449 538.932 725.742 568.948C723.026 575.912 719.442 582.105 715.387 588.343C700.64 591.913 686.75 595.968 672.889 602.22C661.008 599.066 649.441 595.751 637.402 593.137L628.525 591.229C633.984 582.408 638.67 573.018 643.395 563.782Q655.519 540.036 665.698 515.393Q675.877 490.751 684.046 465.371C687.787 453.701 691.879 441.401 693.187 429.158C687.693 426.248 683.528 423.098 679.706 418.172Q678.016 418.914 676.361 419.73C632.89 441.097 591.188 486.073 565.508 526.471C559.408 536.067 552.651 547.057 548.947 557.815C554.22 567.29 562.051 575.635 569.151 583.75C566.219 583.772 563.279 583.689 560.346 583.653C538.035 561.235 523.049 532.23 520.289 500.517C517.295 466.116 527.219 432.06 549.59 405.587C576.064 374.261 607.541 359.085 648.153 355.708Z"/>
	<path fill="#073348" d="M718.803 376.086C730.063 379.91 747.412 397.925 755.302 407.204L746.031 406.134C737.138 405.302 729.698 405.637 720.949 407.303C717.892 401.794 714.758 398.876 709.48 395.519C712.124 388.931 715.72 382.499 718.803 376.086Z"/>
	<path fill="#073348" d="M619.258 364.496C622.801 364.445 626.699 365.467 630.124 366.327C649.583 371.214 665.94 382.557 681.42 394.864C679.105 397.719 677.485 400.334 676.101 403.713C666.136 404.949 655.88 404.822 645.848 405.495C622.192 407.082 597.825 410.456 575.378 418.293C560.207 424.071 547.242 431.336 534.363 441.251C535.282 438.607 536.5 436.032 537.751 433.531C551.314 406.422 571.199 384.502 599.167 371.865C605.682 368.921 612.484 366.749 619.258 364.496Z"/>
</svg>
